<?xml version="1.0" encoding="UTF-8" standalone="no"?>
<!-- Created with Inkscape (http://www.inkscape.org/) -->

<svg
   version="1.1"
   id="svg2"
   width="403.56934"
   height="262.63467"
   viewBox="0 0 403.56934 262.63467"
   xmlns="http://www.w3.org/2000/svg"
   xmlns:svg="http://www.w3.org/2000/svg">
  <defs
     id="defs6" />
  <g
     id="g8"
     transform="matrix(1.3333333,0,0,-1.3333333,0,262.63467)">
    <g
       id="g10"
       transform="translate(104.823,15.956)">
      <g
         id="g12">
        <g
           id="g14">
          <g
             id="g16" />
          <g
             id="g18">
            <g
               id="g20"
               transform="translate(-3.455,-9.647)">
              <g
                 id="g22">
                <g
                   id="g24"
                   transform="translate(-101.368,-6.309)">
                  <g
                     aria-label="A"
                     transform="matrix(1,0,0,-1,101.368,6.309)"
                     id="text28"
                     style="font-size:8.9664px;font-family:CMMI9;-inkscape-font-specification:CMMI9">
                    <path
                       d="M 3.0646876,-5.6652938 1.8650813,-2.4123469 H 4.2686719 Z M 2.5655813,-6.5365407 H 3.5681719 L 6.0593251,0 H 5.1399188 L 4.5444938,-1.6768219 H 1.5980157 L 1.0025906,0 H 0.07005 Z"
                       id="path87" />
                  </g>
                  <g
                     id="g30"
                     transform="translate(101.368,6.309)" />
                </g>
              </g>
              <g
                 id="g32"
                 transform="translate(3.455,9.647)" />
            </g>
          </g>
          <g
             id="g34" />
          <g
             id="g36">
            <g
               id="g38"
               transform="translate(184.125,-9.647)">
              <g
                 id="g40">
                <g
                   id="g42"
                   transform="translate(-288.948,-6.309)">
                  <g
                     aria-label="B"
                     transform="matrix(1,0,0,-1,288.948,6.309)"
                     id="text46"
                     style="font-size:8.9664px;font-family:CMMI9;-inkscape-font-specification:CMMI9">
                    <path
                       d="m 1.7643844,-3.1216032 v 2.39483444 h 1.4185125 q 0.7136344,0 1.0551282,-0.29333434 0.3458718,-0.2977125 0.3458718,-0.9062719 0,-0.6129375 -0.3458718,-0.9018938 -0.3414938,-0.2933344 -1.0551282,-0.2933344 z m 0,-2.6881688 v 1.9701563 h 1.3090594 q 0.6479625,0 0.9631875,-0.2407969 0.3196031,-0.245175 0.3196031,-0.7442812 0,-0.4947282 -0.3196031,-0.7399032 -0.315225,-0.245175 -0.9631875,-0.245175 z M 0.88000314,-6.5365407 H 3.1391157 q 1.0113469,0 1.5586125,0.4203 0.5472656,0.4203 0.5472656,1.1952281 0,0.5998032 -0.2802,0.9544313 -0.2802,0.3546281 -0.8230875,0.4421906 0.6523407,0.1401 1.0113469,0.5866688 0.3633844,0.4421906 0.3633844,1.1076656 0,0.87562503 -0.595425,1.35284067 Q 4.3255876,0 3.2266782,0 H 0.88000314 Z"
                       id="path90" />
                  </g>
                  <g
                     id="g48"
                     transform="translate(288.948,6.309)" />
                </g>
              </g>
              <g
                 id="g50"
                 transform="translate(-184.125,9.647)" />
            </g>
          </g>
          <g
             id="g52" />
          <g
             id="g54">
            <g
               id="g56"
               transform="translate(83.112,167.581)">
              <g
                 id="g58">
                <g
                   id="g60"
                   transform="translate(-187.935,-183.537)">
                  <g
                     aria-label="C,B"
                     transform="matrix(1,0,0,-1,187.935,183.537)"
                     id="text64"
                     style="font-size:8.9664px;font-family:CMMI9;-inkscape-font-specification:CMMI9">
                    <path
                       d="m 5.774747,-6.0330563 v 0.9325406 Q 5.3281782,-5.5164376 4.8203157,-5.7222095 4.3168313,-5.9279813 3.7476751,-5.9279813 q -1.1208001,0 -1.7162251,0.6873656 -0.595425,0.6829875 -0.595425,1.9789125 0,1.2915469 0.595425,1.9789126 0.595425,0.68298747 1.7162251,0.68298747 0.5691562,0 1.0726406,-0.20577188 Q 5.3281782,-1.0113469 5.774747,-1.4272688 v 0.92378442 q -0.4640813,0.315225 -0.9850782,0.4728375 -0.5166187,0.15761251 -1.0945312,0.15761251 -1.4841844,0 -2.3379188,-0.90627189 -0.85373442,-0.91065004 -0.85373442,-2.48239694 0,-1.576125 0.85373442,-2.4823969 0.8537344,-0.91065 2.3379188,-0.91065 0.5866687,0 1.1032875,0.1576125 0.5209969,0.1532344 0.9763219,0.4640813 z"
                       id="path93" />
                    <path
                       d="m 7.7540305,-1.1120438 h 0.9237844 v 0.75303754 L 7.9598023,1.0419938 H 7.3950242 l 0.3590063,-1.40100006 z"
                       id="path95" />
                    <path
                       d="m 12.560826,-3.1216032 v 2.39483444 h 1.418513 q 0.713634,0 1.055128,-0.29333434 0.345872,-0.2977125 0.345872,-0.9062719 0,-0.6129375 -0.345872,-0.9018938 -0.341494,-0.2933344 -1.055128,-0.2933344 z m 0,-2.6881688 v 1.9701563 h 1.30906 q 0.647962,0 0.963187,-0.2407969 0.319603,-0.245175 0.319603,-0.7442812 0,-0.4947282 -0.319603,-0.7399032 -0.315225,-0.245175 -0.963187,-0.245175 z m -0.884381,-0.7267687 h 2.259113 q 1.011347,0 1.558612,0.4203 0.547266,0.4203 0.547266,1.1952281 0,0.5998032 -0.2802,0.9544313 -0.2802,0.3546281 -0.823088,0.4421906 0.652341,0.1401 1.011347,0.5866688 0.363385,0.4421906 0.363385,1.1076656 0,0.87562503 -0.595425,1.35284067 Q 15.12203,0 14.02312,0 h -2.346675 z"
                       id="path97" />
                  </g>
                  <g
                     aria-label="′"
                     transform="matrix(1,0,0,-1,206.154,187.346)"
                     id="text68"
                     style="font-size:5.9776px;font-family:CMSY6;-inkscape-font-specification:CMSY6">
                    <path
                       d="M 0.11675,-3.2690001 0.62169376,-4.3576938 H 1.2142 l -0.84351874,1.0886937 z"
                       id="path100" />
                  </g>
                  <g
                     id="g70"
                     transform="translate(187.935,183.537)" />
                </g>
              </g>
              <g
                 id="g72"
                 transform="translate(-83.112,-167.581)" />
            </g>
          </g>
          <g
             id="g74" />
          <g
             id="g76">
            <g
               id="g78"
               transform="translate(63.047,13.744)">
              <g
                 id="g80">
                <g
                   id="g82"
                   transform="translate(-167.87,-29.7)">
                  <g
                     aria-label="P"
                     transform="matrix(1,0,0,-1,167.87,29.7)"
                     id="text86"
                     style="font-size:8.9664px;font-family:CMMI9;-inkscape-font-specification:CMMI9">
                    <path
                       d="m 1.7643844,-5.809772 v 2.4561282 h 1.1120438 q 0.6173156,0 0.9544312,-0.3196031 0.3371157,-0.3196032 0.3371157,-0.91065 0,-0.5866688 -0.3371157,-0.9062719 Q 3.4937438,-5.809772 2.8764282,-5.809772 Z M 0.88000314,-6.5365407 H 2.8764282 q 1.0989094,0 1.6593094,0.4991062 0.5647781,0.4947282 0.5647781,1.4535376 0,0.9675656 -0.5647781,1.4622937 -0.5604,0.4947282 -1.6593094,0.4947282 H 1.7643844 V 0 H 0.88000314 Z"
                       id="path103" />
                  </g>
                  <g
                     id="g88"
                     transform="translate(167.87,29.7)" />
                </g>
              </g>
              <g
                 id="g90"
                 transform="translate(-63.047,-13.744)" />
            </g>
          </g>
          <g
             id="g92" />
          <g
             id="g94">
            <g
               id="g96"
               transform="translate(-98.514,165.837)">
              <g
                 id="g98">
                <g
                   id="g100"
                   transform="translate(-6.309,-181.793)">
                  <g
                     aria-label="C"
                     transform="matrix(1,0,0,-1,6.309,181.793)"
                     id="text104"
                     style="font-size:8.9664px;font-family:CMMI9;-inkscape-font-specification:CMMI9">
                    <path
                       d="m 5.774747,-6.0330563 v 0.9325406 Q 5.3281782,-5.5164376 4.8203157,-5.7222095 4.3168313,-5.9279813 3.7476751,-5.9279813 q -1.1208001,0 -1.7162251,0.6873656 -0.595425,0.6829875 -0.595425,1.9789125 0,1.2915469 0.595425,1.9789126 0.595425,0.68298747 1.7162251,0.68298747 0.5691562,0 1.0726406,-0.20577188 Q 5.3281782,-1.0113469 5.774747,-1.4272688 v 0.92378442 q -0.4640813,0.315225 -0.9850782,0.4728375 -0.5166187,0.15761251 -1.0945312,0.15761251 -1.4841844,0 -2.3379188,-0.90627189 -0.85373442,-0.91065004 -0.85373442,-2.48239694 0,-1.576125 0.85373442,-2.4823969 0.8537344,-0.91065 2.3379188,-0.91065 0.5866687,0 1.1032875,0.1576125 0.5209969,0.1532344 0.9763219,0.4640813 z"
                       id="path106" />
                  </g>
                  <g
                     aria-label="′"
                     transform="matrix(1,0,0,-1,13.525,185.602)"
                     id="text108"
                     style="font-size:5.9776px;font-family:CMSY6;-inkscape-font-specification:CMSY6">
                    <path
                       d="M 0.11675,-3.2690001 0.62169376,-4.3576938 H 1.2142 l -0.84351874,1.0886937 z"
                       id="path109" />
                  </g>
                  <g
                     id="g110"
                     transform="translate(6.309,181.793)" />
                </g>
              </g>
              <g
                 id="g112"
                 transform="translate(98.514,-165.837)" />
            </g>
          </g>
          <g
             id="g114" />
          <g
             id="g116">
            <g
               id="g118"
               transform="translate(0.1,65.898)">
              <g
                 id="g120">
                <g
                   id="g122"
                   transform="translate(-104.923,-81.854)">
                  <g
                     aria-label="P"
                     transform="matrix(1,0,0,-1,104.923,81.854)"
                     id="text126"
                     style="font-size:8.9664px;font-family:CMMI9;-inkscape-font-specification:CMMI9">
                    <path
                       d="m 1.7643844,-5.809772 v 2.4561282 h 1.1120438 q 0.6173156,0 0.9544312,-0.3196031 0.3371157,-0.3196032 0.3371157,-0.91065 0,-0.5866688 -0.3371157,-0.9062719 Q 3.4937438,-5.809772 2.8764282,-5.809772 Z M 0.88000314,-6.5365407 H 2.8764282 q 1.0989094,0 1.6593094,0.4991062 0.5647781,0.4947282 0.5647781,1.4535376 0,0.9675656 -0.5647781,1.4622937 -0.5604,0.4947282 -1.6593094,0.4947282 H 1.7643844 V 0 H 0.88000314 Z"
                       id="path112" />
                  </g>
                  <g
                     aria-label="′"
                     transform="matrix(1,0,0,-1,112.087,85.663)"
                     id="text130"
                     style="font-size:5.9776px;font-family:CMSY6;-inkscape-font-specification:CMSY6">
                    <path
                       d="M 0.11675,-3.2690001 0.62169376,-4.3576938 H 1.2142 l -0.84351874,1.0886937 z"
                       id="path115" />
                  </g>
                  <g
                     id="g132"
                     transform="translate(104.923,81.854)" />
                </g>
              </g>
              <g
                 id="g134"
                 transform="translate(-0.1,-65.898)" />
            </g>
          </g>
          <g
             id="g136">
            <path
               d="M 0,0 66.62935,23.3912 13.46773,69.46417 Z"
               style="fill:#cccccc;fill-opacity:1;fill-rule:nonzero;stroke:#000000;stroke-width:0.3985;stroke-linecap:round;stroke-linejoin:round;stroke-miterlimit:10;stroke-dasharray:none;stroke-opacity:1"
               id="path138" />
          </g>
          <g
             id="g140">
            <path
               d="M 93.5649,162.31964 H -93.5649 L 0,0"
               style="fill:none;stroke:#000000;stroke-width:0.79701;stroke-linecap:round;stroke-linejoin:round;stroke-miterlimit:10;stroke-dasharray:none;stroke-opacity:1"
               id="path142" />
          </g>
          <g
             id="g144">
            <path
               d="M 187.83723,0 66.62935,23.3912"
               style="fill:none;stroke:#000000;stroke-width:1.59404;stroke-linecap:round;stroke-linejoin:round;stroke-miterlimit:10;stroke-dasharray:none;stroke-opacity:1"
               id="path146" />
          </g>
          <g
             id="g148">
            <path
               d="M 93.5649,162.31964 13.46773,69.46417"
               style="fill:none;stroke:#000000;stroke-width:1.59404;stroke-linecap:round;stroke-linejoin:round;stroke-miterlimit:10;stroke-dasharray:none;stroke-opacity:1"
               id="path150" />
          </g>
          <g
             id="g152">
            <path
               d="M 93.5649,162.31964 66.62935,23.3912"
               style="fill:none;stroke:#000000;stroke-width:0.79701;stroke-linecap:round;stroke-linejoin:round;stroke-miterlimit:10;stroke-dasharray:none;stroke-opacity:1"
               id="path154" />
          </g>
          <g
             id="g156">
            <path
               d="M 0,0 H 187.83723 L 93.5649,162.31964 Z"
               style="fill:none;stroke:#000000;stroke-width:0.79701;stroke-linecap:round;stroke-linejoin:round;stroke-miterlimit:10;stroke-dasharray:none;stroke-opacity:1"
               id="path158" />
          </g>
          <path
             d="M 1.49442,0 C 1.49442,0.82535 0.82535,1.49442 0,1.49442 -0.82535,1.49442 -1.49442,0.82535 -1.49442,0 c 0,-0.82535 0.66907,-1.49442 1.49442,-1.49442 0.82535,0 1.49442,0.66907 1.49442,1.49442 z"
             style="fill:#000000;fill-opacity:1;fill-rule:nonzero;stroke:#000000;stroke-width:0.3985;stroke-linecap:round;stroke-linejoin:round;stroke-miterlimit:10;stroke-dasharray:none;stroke-opacity:1"
             id="path160" />
          <path
             d="m 189.33167,0 c 0,0.82535 -0.66907,1.49442 -1.49444,1.49442 -0.82536,0 -1.49443,-0.66907 -1.49443,-1.49442 0,-0.82535 0.66907,-1.49442 1.49443,-1.49442 0.82537,0 1.49444,0.66907 1.49444,1.49442 z"
             style="fill:#000000;fill-opacity:1;fill-rule:nonzero;stroke:#000000;stroke-width:0.3985;stroke-linecap:round;stroke-linejoin:round;stroke-miterlimit:10;stroke-dasharray:none;stroke-opacity:1"
             id="path162" />
          <path
             d="m 95.05933,162.31964 c 0,0.82536 -0.66907,1.49443 -1.49443,1.49443 -0.82537,0 -1.49443,-0.66907 -1.49443,-1.49443 0,-0.82534 0.66906,-1.49443 1.49443,-1.49443 0.82536,0 1.49443,0.66909 1.49443,1.49443 z"
             style="fill:#000000;fill-opacity:1;fill-rule:nonzero;stroke:#000000;stroke-width:0.3985;stroke-linecap:round;stroke-linejoin:round;stroke-miterlimit:10;stroke-dasharray:none;stroke-opacity:1"
             id="path164" />
          <path
             d="m 68.12378,23.3912 c 0,0.82537 -0.66907,1.49444 -1.49443,1.49444 -0.82536,0 -1.49443,-0.66907 -1.49443,-1.49444 0,-0.82536 0.66907,-1.49443 1.49443,-1.49443 0.82536,0 1.49443,0.66907 1.49443,1.49443 z"
             style="fill:#000000;fill-opacity:1;fill-rule:nonzero;stroke:#000000;stroke-width:0.3985;stroke-linecap:round;stroke-linejoin:round;stroke-miterlimit:10;stroke-dasharray:none;stroke-opacity:1"
             id="path166" />
          <path
             d="m -92.07047,162.31964 c 0,0.82536 -0.66906,1.49443 -1.49443,1.49443 -0.82536,0 -1.49443,-0.66907 -1.49443,-1.49443 0,-0.82534 0.66907,-1.49443 1.49443,-1.49443 0.82537,0 1.49443,0.66909 1.49443,1.49443 z"
             style="fill:#000000;fill-opacity:1;fill-rule:nonzero;stroke:#000000;stroke-width:0.3985;stroke-linecap:round;stroke-linejoin:round;stroke-miterlimit:10;stroke-dasharray:none;stroke-opacity:1"
             id="path168" />
          <path
             d="m 14.96216,69.46417 c 0,0.82537 -0.66907,1.49443 -1.49443,1.49443 -0.82537,0 -1.49443,-0.66906 -1.49443,-1.49443 0,-0.82536 0.66906,-1.49443 1.49443,-1.49443 0.82536,0 1.49443,0.66907 1.49443,1.49443 z"
             style="fill:#000000;fill-opacity:1;fill-rule:nonzero;stroke:#000000;stroke-width:0.3985;stroke-linecap:round;stroke-linejoin:round;stroke-miterlimit:10;stroke-dasharray:none;stroke-opacity:1"
             id="path170" />
        </g>
      </g>
    </g>
  </g>
</svg>
